<svg id="Layer_1" data-name="Layer 1" xmlns="http://www.w3.org/2000/svg" xmlns:xlink="http://www.w3.org/1999/xlink" viewBox="0 0 767.86 351.9"><defs><linearGradient id="무제_그라디언트" x1="62" y1="206.5" x2="62" y2="354" gradientTransform="matrix(1, 0, 0, -1, 0, 354)" gradientUnits="userSpaceOnUse"><stop offset="0" stop-color="#378cff"/><stop offset="1" stop-color="#37c8ff"/></linearGradient><linearGradient id="무제_그라디언트_2" x1="134" y1="2.1" x2="134" y2="206.5" gradientTransform="matrix(1, 0, 0, -1, 0, 354)" gradientUnits="userSpaceOnUse"><stop offset="0" stop-color="#9137ff"/><stop offset="1" stop-color="#646eff"/></linearGradient></defs><path d="M76.3,147.5H0C12.3,86.7,40.4,34.7,78,0l46,66.8C103,85.9,86.2,114,76.3,147.5Z" fill="url(#무제_그라디언트)"/><path d="M110,217a245.7,245.7,0,0,0,9.8-69.5H76.3A245.7,245.7,0,0,0,66.5,217Z" fill="#378cff"/><path d="M193.3,147.5H119.8A245.7,245.7,0,0,1,110,217c-7.8,26.6-20,49.8-35.3,67.8l46.1,67.1c31.3-34.1,54.6-81,65.5-134.9A348.47,348.47,0,0,0,193.3,147.5Z" fill="url(#무제_그라디언트_2)"/><path d="M608.44,254.44H625.8c17.44,0,28.48,10.08,28.48,25.68,0,16.39-11.28,26.95-29.12,26.95H608.44Zm17.2,44.23c12.08,0,19.68-7.28,19.68-18.55,0-10.48-7.36-17.28-19-17.28H617.4v35.83Z" fill="#fff"/><path d="M660.68,288.43c0-11.83,7.68-19.67,19.19-19.67s19.2,7.76,19.2,19.51S691.39,308,679.87,308,660.68,300.19,660.68,288.43Zm29.59,0c0-7-4.16-11.75-10.4-11.75s-10.39,4.63-10.39,11.59S673.63,300,679.87,300,690.27,295.39,690.27,288.43Z" fill="#fff"/><path d="M704.83,288.43c0-12.23,7.44-19.59,19.36-19.59a24.21,24.21,0,0,1,11.27,2.8v8.79a18.53,18.53,0,0,0-10.79-3.51c-6.88,0-11.12,4-11.12,11.43,0,7.28,4.4,11.44,11.28,11.44a17.75,17.75,0,0,0,10.79-4v8.8a21.55,21.55,0,0,1-11.35,3.28C712.27,307.87,704.83,300.51,704.83,288.43Z" fill="#fff"/><path d="M742.1,305.39v-7.76a22.39,22.39,0,0,0,11.2,3.2c3.76,0,5.84-1.36,5.84-3.92,0-2.08-1.44-3.36-5.36-4.72l-1.2-.4c-7.6-2.64-10.8-5.92-10.8-11.83,0-7,4.48-11.12,13.12-11.12a36.5,36.5,0,0,1,11.28,2.08v7.75a22.5,22.5,0,0,0-10.56-2.79c-3.28,0-5.2,1.28-5.2,3.51,0,2,1.36,3.2,5.28,4.56l1.2.4c7.76,2.64,11,6,11,11.6,0,7.28-4.88,11.92-14.16,11.92A31.72,31.72,0,0,1,742.1,305.39Z" fill="#fff"/><path d="M262.87,226.17V203.84a49.76,49.76,0,0,0,28.52,8.53c8.53,0,13.64-3.87,13.64-10.7,0-6-4.8-10.07-15.34-13.33l-2.95-.92c-16.58-5.28-25.11-15.82-25.11-31.16,0-17.67,13-30.07,33.33-30.07a65,65,0,0,1,28.21,6.36v22.32c-9-5.58-17.21-8.53-26.51-8.53-8.37,0-12.86,2.95-12.86,9.3,0,5.58,4.49,9.15,13.79,12.09l3,.93c17.67,5.42,26.66,15.81,26.66,30.38,0,19.84-13.33,33.48-34.57,33.48A67.28,67.28,0,0,1,262.87,226.17Z" fill="#fff"/><path d="M346.26,212.37v-36H337V157.5h9.3V138.44h21.08V157.5h13v18.91h-13v29.3c0,4.49,2.79,7,6.51,7a14.36,14.36,0,0,0,6.51-1.55v18.13a42.09,42.09,0,0,1-15,2.64C353.08,231.9,346.26,225.08,346.26,212.37Z" fill="#fff"/><path d="M390.28,193.77c0-22.79,13.18-37.82,34.56-37.82,20.15,0,32.4,13.17,32.4,40.3v5.12H411.82c.62,7.9,7.6,12.86,18.91,12.86,7.44,0,15.81-2.33,24.34-7v19.22a76.37,76.37,0,0,1-27.44,5.43C404.38,231.9,390.28,217.48,390.28,193.77Zm21.54-7.9h24.34c0-7.75-4.19-12.87-11.47-12.87C416.78,173,412.13,178.27,411.82,185.87Z" fill="#fff"/><path d="M469.33,119.37h21.08v111H469.33Z" fill="#fff"/><path d="M505.29,119.37h21.08v111H505.29Z" fill="#fff"/><path d="M538.77,210.67c0-14,9.14-22,27.9-25.27L580,183.08v-1.55c0-5-4.65-7.6-13.8-7.6A52.78,52.78,0,0,0,542,180.44V160.6c8.53-2.79,19.38-5.58,27.44-5.58,20.92,0,31.62,9.46,31.62,25.89v49.44H581.7l-1.55-9.61a22,22,0,0,1-19.37,11.16C547.6,231.9,538.77,223.68,538.77,210.67ZM580,207.25v-9.92l-10.7,1.87c-6,1.08-9.76,4-9.76,9,0,4.34,3.25,7,8.52,7A12.41,12.41,0,0,0,580,207.25Z" fill="#fff"/><path d="M648.5,128.36h21.71v102H648.5Z" fill="#fff"/><path d="M714.22,148.82h-31V128.36h83.7v20.46h-31v81.53h-21.7Z" fill="#fff"/></svg>